<?xml version="1.0" encoding="UTF-8"?>
<!-- Generator: Adobe Illustrator 25.4.1, SVG Export Plug-In . SVG Version: 6.00 Build 0)  -->
<svg version="1.1" id="Calque_1" xmlns="http://www.w3.org/2000/svg" xmlns:xlink="http://www.w3.org/1999/xlink" x="0px" y="0px" viewBox="0 0 1046.2 1080" style="enable-background:new 0 0 1046.2 1080;" xml:space="preserve">
<style type="text/css">
	.st0{fill:#00B2A9;}
	.st1{fill:#280091;}
</style>
<path class="st0" d="M727.08,0L228.42,1022.72c75.21,36.69,159.7,57.28,249,57.28c314.13,0,568.78-254.65,568.78-568.78  C1046.25,286.63,916.05,92.48,727.08,0z"/>
<g>
	<g>
		<polygon class="st1" points="434.29,226.08 359.78,403.9 300.54,403.9 250.54,281.96 214.23,281.96 214.23,403.9 147.38,403.9     147.38,282.29 105.92,282.29 105.92,226.08 300.54,226.08 330.33,326.64 359.78,226.08   "/>
		<path class="st1" d="M490.68,275.94h81.88v-49.86H443.25l-17.46,105.74c0,0,21.1-5.93,42.76-7.24    c22.83-1.35,46.12,4.01,45.52,19.09c-0.51,12.93-28.34,19.33-50.42,14.8c-20.82-4.25-39.77-12.93-39.77-12.93l-7.84,47.15    c0,0,42.06,14.56,72.73,13.82c30.72-0.75,91.73-8.03,95.23-63.02c2.29-36.69-36.88-55.6-58.77-55.6c-27.4,0-38.23,6.82-38.23,6.82    L490.68,275.94z"/>
	</g>
	<g>
		<polyline class="st1" points="111.6,477.77 120.53,510.61 145.79,417.3 211.52,417.3 240.74,595.06 178.33,595.06 169.6,497.68     139.44,595.06 101.77,595.06 71.61,497.68 62.41,595.06 0,595.06 28.71,417.3 95.14,417.3 111.6,477.77   "/>
		<path class="st1" d="M436.06,506.6c0,57.09-44.07,91.22-98.27,91.22c-54.15,0-98.22-34.17-98.22-91.22    c0-55.83,44.26-92.15,98.22-92.15C391.76,414.45,436.06,450.81,436.06,506.6 M304.6,507.58c0,20.26,13.68,34.22,33.19,34.22    c19.56,0,33.19-13.96,33.19-34.22c0-18.86-12.7-34.64-33.19-34.64C317.3,472.94,304.6,488.72,304.6,507.58"/>
		<polygon class="st1" points="447.17,417.3 509.12,417.3 563.6,515.8 563.55,417.3 625.27,417.3 625.27,595.06 563.55,595.06     509.07,501.7 509.07,595.06 447.17,595.06   "/>
		<path class="st1" d="M638.76,417.3h65.78c59.57,0,105.27,26.14,105.27,91.5c0,52.8-37.21,86.32-89.26,86.32H638.8V417.3H638.76z     M703.32,541.8h4.01c21.43,0,37.91-9.9,37.91-33.28c0-24.98-14.33-35.57-37.91-35.57h-4.01V541.8z"/>
		<polygon class="st1" points="820.07,417.3 939.49,417.3 939.49,465.84 885.1,465.84 885.1,482.84 934.77,482.84 934.77,529.01     885.1,529.01 885.1,546.47 941.4,546.47 941.4,595.06 820.07,595.06   "/>
	</g>
	<g>
		<path class="st1" d="M305.35,608.41h81.83c41.5,0,72.17,21.24,72.17,65.36c0,36.32-22.64,58.96-58.73,58.96h-33.05v53.54H305.3    V608.41H305.35z M367.62,687.91h6.4c11.34,0,23.57-1.87,23.57-16.29c0-13.91-13.21-14.61-23.81-14.61h-6.12v30.9H367.62z"/>
		<path class="st1" d="M477.1,608.41h64.66v120.77H596v57.09H477.1V608.41z"/>
		<path class="st1" d="M777.4,608.41v105.22c0,51.91-32.54,75.49-82.35,75.49c-49.81,0-82.35-23.57-82.35-75.49V608.41h64.66v99.06    c0,13.91,0.47,26.19,17.69,26.19c17.23,0,17.69-12.28,17.69-26.19v-99.06H777.4z"/>
		<path class="st1" d="M816.52,722.6l3.31,2.61c11.58,8.96,25.49,16.29,40.33,16.29c6.35,0,16.53-2.61,16.53-10.6    c0-8.03-8.5-8.73-14.38-9.9l-12.98-2.33c-25.26-4.48-46.5-19.33-46.5-47.2c0-42.25,38.47-65.82,77.17-65.82    c20.31,0,38.93,4.95,56.39,15.59l-17.46,45.52c-11.06-7.56-23.57-13.44-37.49-13.44c-5.65,0-13.91,2.1-13.91,9.43    c0,6.58,8.03,7.56,12.98,8.73l14.61,3.31c27.36,6.12,47.2,20.77,47.2,50.98c0,42.48-38.7,63.44-77.12,63.44    c-22.41,0-48.36-6.12-68.44-16.29L816.52,722.6z"/>
	</g>
</g>
</svg>