<svg xmlns="http://www.w3.org/2000/svg" xmlns:xlink="http://www.w3.org/1999/xlink" width="135.526" height="47.16" viewBox="0 0 135.526 47.16"><defs><style>.a{fill:none;}.b{clip-path:url(#a);}.c{fill:#0a59ef;}</style><clipPath id="a"><rect class="a" width="135.526" height="47.16" transform="translate(0 0)"/></clipPath></defs><g transform="translate(0 0.001)"><g class="b"><path class="c" d="M105.182,39.2h-.52V30.272h.52c3.055,0,4.916,1.375,4.916,4.61,0,3.032-2.137,4.315-4.916,4.315m-.365-16.142H96.291V46.106h10.6c6.75,0,11.576-4.344,11.576-11.189,0-8.47-5.926-11.862-13.651-11.862"/><path class="c" d="M119.8,23.055V46.105h15.731v-6.3h-7.3V37.542h6.445v-5.99h-6.445v-2.2h7.056v-6.3Z"/><path class="c" d="M86.541,35.83,79.479,23.055H71.448V46.1h8.027l0-12.108L86.537,46.1h8V23.055h-8Z"/><path class="c" d="M32.918,23.055,29.1,33.047l-3.862-9.992ZM32.918,0,29.1,13.039,25.235,0H0V7.291H5.373V23.055h8.668V7.249h5.148l6.046,15.805H17.19L13.465,46.1h8.093l1.193-12.628L26.663,46.1H31.55l3.907-12.628L36.59,46.1h8.094L40.9,23.054H32.918L41.772,0Z"/><path class="c" d="M57.267,39.362a4.785,4.785,0,1,1,4.786-4.786,4.786,4.786,0,0,1-4.786,4.786m0-17.369c-.249,0-.5.009-.741.023a7.606,7.606,0,0,0,5.023-6.8c.3-4.757-4.78-7.208-7.619-7.208-3.555,0-4.956.885-4.956.885l.477-2.427H60.065V0H43.3L41.037,13.707a30.4,30.4,0,0,1,5.547-.939c2.962-.177,5.978.522,5.9,2.475-.065,1.677-3.675,2.507-6.538,1.92a26.906,26.906,0,0,1-5.156-1.678L39.773,21.6s5.451,1.886,9.431,1.789c.776-.019,1.7-.07,2.691-.193a12.585,12.585,0,1,0,5.372-1.2"/></g></g></svg>